<svg width="120" height="40" viewBox="0 0 120 40" xmlns="http://www.w3.org/2000/svg" role="img" aria-labelledby="title"><title>Amazon</title><rect width="120" height="40" rx="6" fill="#111"/><path d="M20 27v-8.5h-3.3v-3H27v3h-3.3V27h-3.7Zm12.2 0-3.9-11.5h3.6l2.2 7.6h.1l2.2-7.6H40L36.1 27h-3.9Zm13.9.3c-3.6 0-5.8-2.2-5.8-6 0-3.8 2.2-6 5.8-6s5.8 2.2 5.8 6c0 3.8-2.2 6-5.8 6Zm0-3c1.4 0 2.1-1.1 2.1-3s-.7-3-2.1-3c-1.4 0-2.1 1.1-2.1 3s.7 3 2.1 3Zm11.2 2.7c-2.3 0-3.9-1-4.6-2.6l3-1.4c.3.8.8 1.2 1.7 1.2 1 0 1.5-.5 1.5-1.3 0-.9-.6-1.3-1.9-1.8-2.5-.9-3.6-2-3.6-4.2 0-2.4 1.9-4 4.4-4 2 0 3.5.9 4.3 2.5l-2.9 1.5c-.2-.6-.6-1-1.4-1-.8 0-1.3.4-1.3 1.1 0 .8.5 1.1 1.9 1.6 2.4.9 3.6 2 3.6 4.3 0 2.7-2 4.1-4.7 4.1Zm9.3.3c-1.8 0-3.4-.6-4.6-1.6l1.6-2.4c.9.8 2 1.2 3 .1.8-.8.8-2.2.8-3.4V15.5h3.5V22c0 1.9-.1 3.9-1.6 5.4-1 1-2.4 1.6-4.2 1.6Z" fill="#fff"/><path d="M20 30c8 5 24 5 32 0" stroke="#ff9900" stroke-width="2" stroke-linecap="round"/></svg>
