<svg width="120" height="40" viewBox="0 0 120 40" xmlns="http://www.w3.org/2000/svg" role="img" aria-labelledby="title"><title>Apple Pay</title><rect width="120" height="40" rx="6" fill="#fff"/><path d="M30.8 15.4c-.7.8-1.8 1.4-2.8 1.3-.1-1.1.3-2.2 1-3 .7-.8 1.9-1.4 2.9-1.4.1 1.1-.3 2.1-1.1 3.1Zm1.1 3.2c0 2.2 1.9 3 1.9 3-.1.4-.3.8-.6 1.2-.6.8-1.2 1.5-2.1 1.5-.9 0-1.2-.5-2.2-.5s-1.3.5-2.2.5c-.9 0-1.5-.7-2.1-1.5-.8-1.1-1.5-3-1.2-4.7.8-.1 1.7-.5 2.3-1 .5-.4 1.1-1.1 1.4-1.9.3-.9.5-1.8.4-2.3h.1c1 0 1.9.5 2.5 1.1.4.5.8 1.1 1 1.8-.9.3-1.7 1.2-1.6 2.3Zm7.4-4.6c2.3 0 3.4 1.3 3.4 1.3l-.9 1.4s-1-1-2.4-1c-1.8 0-3 1.4-3 3.2s1.3 3.2 3 3.2c1.6 0 2.5-1.1 2.5-1.1l.9 1.3s-1.2 1.5-3.5 1.5c-2.9 0-5-2.1-5-4.9 0-2.9 2.2-4.9 5-4.9Zm6.6.2h1.8l2.2 6.1h.1l2.2-6.1H56L52.7 28h-1.9l1.2-3.4-3.3-8.4Zm14.5 5.1c0 2.9-2 4.9-4.8 4.9s-4.8-2-4.8-4.9 2-4.9 4.8-4.9 4.8 2 4.8 4.9Zm-1.9 0c0-1.9-1.2-3.2-2.9-3.2s-2.9 1.3-2.9 3.2 1.2 3.2 2.9 3.2 2.9-1.3 2.9-3.2Zm4.4-4.7c1.9 0 2.8 1.5 2.8 1.5h.1v-1.3h1.8v9.2c0 2.6-1.6 3.8-3.7 3.8-1.9 0-3.1-1.3-3.1-1.3l.9-1.4s1 1.1 2.2 1.1c1.3 0 2.1-.7 2.1-2v-.7h-.1c-.5.7-1.4 1.2-2.4 1.2-2.2 0-3.6-1.8-3.6-4.8-.1-3 1.5-5.3 3.7-5.3Zm.4 7.9c1.1 0 2.1-.9 2.1-2.7 0-1.6-.9-2.7-2.1-2.7-1.3 0-2.2 1.2-2.2 2.7-.1 1.5.9 2.7 2.2 2.7Z" fill="#111"/></svg>
