<svg width="120" height="40" viewBox="0 0 120 40" xmlns="http://www.w3.org/2000/svg" role="img" aria-labelledby="title"><title>bol.com</title><rect width="120" height="40" rx="6" fill="#00205B"/><path d="M23 27v-9.5h3.6c2.1 0 3.6 1.3 3.6 3.1 0 1.1-.6 2-1.5 2.5 1.2.4 1.9 1.5 1.9 2.8 0 1.9-1.6 3.1-3.8 3.1H23Zm3.4-5.9c.8 0 1.2-.5 1.2-1.1 0-.7-.4-1.1-1.2-1.1h-.9V21h.9Zm.1 4c.9 0 1.4-.5 1.4-1.2 0-.7-.5-1.1-1.4-1.1h-1v2.3h1ZM38.5 27c-3 0-5-2.1-5-5.2 0-3.1 2-5.2 5-5.2s5 2.1 5 5.2c0 3.1-2 5.2-5 5.2Zm0-2.7c1.1 0 1.7-.9 1.7-2.5s-.6-2.5-1.7-2.5-1.7.9-1.7 2.5.6 2.5 1.7 2.5Zm7.2 2.5V16.3h3.2v10.5h-3.2Zm9.7.2c-2.8 0-4.8-2.2-4.8-5.3 0-3.1 2-5.2 4.8-5.2 1.6 0 2.8.7 3.6 1.9l-2.3 1.7c-.3-.6-.7-1-1.3-1-.9 0-1.5.9-1.5 2.5 0 1.7.6 2.5 1.5 2.5.6 0 1-.3 1.3-.9l2.3 1.6c-.8 1.3-2 2.1-3.6 2.1ZM65 27l-3.9-10.7h3.4l2.1 6.9h.1l2.1-6.9h3.4L68.3 27H65Z" fill="#fff"/></svg>
