<svg width="120" height="40" viewBox="0 0 120 40" xmlns="http://www.w3.org/2000/svg" role="img" aria-labelledby="title"><title>Google Pay</title><rect width="120" height="40" rx="6" fill="#fff"/><path d="M30.2 20c0-5 3.7-8.9 8.8-8.9 2.6 0 4.5 1 5.9 2.4l-2 2.4c-1-1-2.2-1.6-3.8-1.6-3.2 0-5.5 2.5-5.5 5.7s2.3 5.7 5.5 5.7c1.4 0 2.8-.4 3.7-1.2v-2.5h-4.9v-3h8.3v6.8c-1.6 1.4-3.7 2.4-7 2.4-5 0-8.8-3.9-8.8-8.9Z" fill="#1a73e8"/><path d="M55 12.3c2.5 0 4.1 1.1 5.2 2.5l-2.1 2c-.7-.9-1.6-1.5-3-1.5-2.5 0-4.3 2-4.3 4.6s1.8 4.6 4.3 4.6c1.2 0 2.3-.5 3-1.5l2.1 2c-1.1 1.4-2.7 2.5-5.2 2.5-4.2 0-7.4-3.2-7.4-7.6 0-4.4 3.2-7.6 7.4-7.6Z" fill="#ea4335"/><path d="M63 10h3.3v20H63V10Z" fill="#34a853"/><path d="M76 12.3c4.2 0 7.4 3.2 7.4 7.6 0 4.4-3.2 7.6-7.4 7.6s-7.4-3.2-7.4-7.6c0-4.4 3.2-7.6 7.4-7.6Zm0 3c-2.5 0-4.3 2-4.3 4.6s1.8 4.6 4.3 4.6c2.5 0 4.3-2 4.3-4.6s-1.8-4.6-4.3-4.6Z" fill="#fbbc05"/><path d="M88.3 12.5c2.5 0 4.1 1.1 5.2 2.5l-2.1 2c-.7-.9-1.6-1.5-3-1.5-2.5 0-4.3 2-4.3 4.6s1.8 4.6 4.3 4.6c1.2 0 2.3-.5 3-1.5l2.1 2c-1.1 1.4-2.7 2.5-5.2 2.5-4.2 0-7.4-3.2-7.4-7.6 0-4.4 3.2-7.6 7.4-7.6Z" fill="#4285f4"/><path d="M96.3 12.5h3.1v6.9h.1l4.4-6.9h3.7l-4.6 6.8 4.9 10.7h-3.6L101 22.1l-1.6 2.4v5H96.4l-.1-17Z" fill="#5f6368"/></svg>
