<svg width="120" height="40" viewBox="0 0 120 40" xmlns="http://www.w3.org/2000/svg" role="img" aria-labelledby="title"><title>PayPal</title><rect width="120" height="40" rx="6" fill="#fff"/><path d="M32 10h9c4.6 0 7.6 2.7 7.6 6.6 0 5.3-4.2 8.3-9.4 8.3h-3l-1.3 4.9h-5L32 10Zm6.5 11.1h2.2c2.3 0 3.8-1.2 3.8-3.4 0-1.5-1.1-2.5-3-2.5h-2.1l-1 3.9h.1Z" fill="#003087"/><path d="M53 10h9c4.6 0 7.6 2.7 7.6 6.6 0 5.3-4.2 8.3-9.4 8.3h-3L56 30h-5l2-20Zm6.5 11.1h2.2c2.3 0 3.8-1.2 3.8-3.4 0-1.5-1.1-2.5-3-2.5h-2.1l-1 3.9h.1Z" fill="#009cde"/><path d="M74 10h8.5c4.2 0 6.9 2.3 6.9 5.9 0 4.7-3.7 7.4-8.8 7.4h-2.2L77 30h-5l2-20Zm6 9.5h1.8c1.9 0 3.1-1 3.1-2.8 0-1.2-.9-2-2.4-2H80l-1 4.8Z" fill="#012169"/></svg>
